PathFileType	4	(X/Y/Z)	pose_F01_0-96.trc
DataRate	CameraRate	NumFrames	NumMarkers	Units	OrigDataRate	OrigDataStartFrame	OrigNumFrames
30	30	9	21	m	30	80	96
Frame#	Time	CHip			RHip			RKnee			RAnkle			RBigToe			RSmallToe			RHeel			LHip			LKnee			LAnkle			LBigToe			LSmallToe			LHeel			Neck			Nose			RShoulder			RElbow			RWrist			LShoulder			LElbow			LWrist			
		X1	Y1	Z1	X2	Y2	Z2	X3	Y3	Z3	X4	Y4	Z4	X5	Y5	Z5	X6	Y6	Z6	X7	Y7	Z7	X8	Y8	Z8	X9	Y9	Z9	X10	Y10	Z10	X11	Y11	Z11	X12	Y12	Z12	X13	Y13	Z13	X14	Y14	Z14	X15	Y15	Z15	X16	Y16	Z16	X17	Y17	Z17	X18	Y18	Z18	X19	Y19	Z19	X20	Y20	Z20	X21	Y21	Z21	
80	2.6666666666666665	-0.3149838211156518	1.8870359706212319	-0.7031333223201697	-0.32625040382940673	1.8845676780315845	-0.6468342556999116																-1.2078206284111235	1.7864406980953573	0.11086789636607379	-0.226329040830505	1.7286890647387418	-0.6184976157330442													-0.31189081177977884	2.029035959845357	-0.7131180522321547	-0.299604706268178	2.081817455125409	-0.6946122405894872	-0.32880348296651557	2.0267180555523585	-0.6320558122378573	-0.31532314794348293	1.9771341581066282	-0.5879690068819801	-0.29497209101129673	2.0276960691710157	-0.6060328540329548	-0.29297614382192827	2.0346314259276013	-0.7944064334299235	-0.28100882617108636	1.963381259720388	-0.828768918092749	-0.27384529980641087	1.9807382433988523	-0.7491015708579652
81	2.7	-0.31538369859325077	1.8848539886282232	-0.7028864397868204	-0.3287377225103136	1.8820719773081522	-0.6444764411790701																-1.203505786417725	1.7858743272577149	0.10209618731043207	-0.226329040830505	1.7286890647387418	-0.6184976157330442													-0.31299411115529435	2.0277845970605757	-0.7161069131882066	-0.29953722571202196	2.0846461454951957	-0.6956701638504956	-0.32979939751047915	2.026566451596805	-0.6351674420668728	-0.320985718440318	1.973465207442571	-0.5873353698757238	-0.2958659376864522	2.016013194939657	-0.6057182873349775	-0.2931549150579212	2.033055786955283	-0.7945343254087285	-0.27877692868442233	1.9674623332519257	-0.8314174473036183	-0.2746055200446466	1.982847912024824	-0.7521463782711444
82	2.7333333333333334	-1.2819681945546169	1.789261324266749	0.2398629196718736	-0.32558623115816415	1.8853402246018913	-0.6521850618645049																-1.2048436613651918	1.7888477966004497	0.10347909615411761	-0.226329040830505	1.7286890647387418	-0.6184976157330442													-0.3108613252759556	2.028127028132285	-0.7182711713269461	-0.2982205889373072	2.086302385360316	-0.7006139665767811	-0.3278903586827826	2.0256692450088067	-0.6373074699646621	-0.3196242477234921	1.9726952441422514	-0.5919115486129888	-0.2929629156200427	2.0251769342578427	-0.6249554419710264	-0.2917726367539202	2.0337984587976106	-0.7994702822023871	-0.2785870275195511	1.9643250729374655	-0.8311198767342398	-0.27513189047941417	1.982543968189701	-0.7634645735619972
83	2.7666666666666666	-1.2800077542856916	1.786694568197353	0.2375507271316665	-0.3206529134866501	1.8856181998873796	-0.6564287125569084																-1.2032179938939458	1.7850401220333207	0.10555973551722347	-0.226329040830505	1.7286890647387418	-0.6184976157330442													-0.30948139238270167	2.0292398731235908	-0.7233964383407208	-0.2970357755406498	2.086462627717788	-0.7056401529852152	-0.3266242833319104	2.026382984233997	-0.6425258645417385	-0.3132670242250502	1.9716317244322623	-0.6062691077155945	-0.29537199465146685	2.018950731467629	-0.6310579511669107	-0.2925138890601841	2.033531115170389	-0.8021657574620377	-0.2787009004638283	1.9636199674857002	-0.8310627776160698	-0.27285025343866054	1.9840384414283816	-0.7555109032986173
84	2.8	-1.2771766499734722	1.788566669618171	0.23010251392109363	-0.32075403668897046	1.8872317234386502	-0.6567484671026032																-1.1958240925611798	1.7862785811826183	0.08939787176994796	-0.226329040830505	1.7286890647387418	-0.6184976157330442													-0.30940599419773834	2.031089151910851	-0.7239044933907043	-0.2978264128899623	2.0867961815774567	-0.7087409620142163	-0.32552206385509225	2.028311756340226	-0.6480295560889245	-0.31140806071449334	1.966443144444538	-0.6081785105678921	-0.2965493952258265	2.0153016670955197	-0.6426862977978908	-0.2902908043436697	2.034898472167516	-0.8046763835418378	-0.27728418892533485	1.9647891441486645	-0.8360835258496129	-0.26893288687658046	1.9827770844335124	-0.7517870633393844
85	2.8333333333333335	-1.2750571237491646	1.7864524338499825	0.22742719257847285	-0.3206664318062068	1.8850227370548165	-0.6566837170947714																-1.1937559823013653	1.784285241441435	0.08679660001385904	-0.226329040830505	1.7286890647387418	-0.6184976157330442													-0.311224620161873	2.031248102949201	-0.7298295869828271	-0.29660769263708736	2.087016894344762	-0.7137528376832768	-0.32654165799982415	2.0294541059380524	-0.6513686482576967	-0.31530410405228815	1.9526676585626606	-0.6087237639354619	-0.29239239626378105	2.0116920697879377	-0.6514229362053388	-0.29289940488266936	2.0326402798786884	-0.8132958222254548	-0.2804435393716521	1.963049198479255	-0.8370063909747747	-0.27051513419831835	1.9772296119820891	-0.7571937718009548
86	2.8666666666666667	-1.277219846575785	1.7887852878189936	0.22997770584339144	-0.3217524344161663	1.8881197879588356	-0.6599892600259021																-1.200235368331047	1.787873977635507	0.09430087512866855	-0.226329040830505	1.7286890647387418	-0.6184976157330442													-0.3090519664255086	2.032651958023468	-0.732420699660699	-0.2974929060216765	2.088179747223491	-0.717303974231082	-0.32431596378072636	2.0295083184610014	-0.6537041301863137	-0.3092350275398872	1.9639512125774914	-0.6180144630352591	-0.2882353973017356	2.0080824724803557	-0.6601595746127868	-0.2906035735141859	2.0351690923504546	-0.8157335928629669	-0.2787355902893796	1.966345231943864	-0.8422117503116602	-0.2769816167930448	1.9791843133605904	-0.7694063054309341
87	2.9	-1.2703623894826495	1.787042987499697	0.2171887375489513	-0.31964044324134355	1.8871804180987677	-0.6619684045655179																-1.1916574967455427	1.7842419778661343	0.07974630989630667	-0.226329040830505	1.7286890647387418	-0.6184976157330442													-0.3090158210953632	2.0315971281101004	-0.7319731982650841	-0.2963140875496242	2.0869664938249746	-0.7218441308060363	-0.3233915761471035	2.0293314678811814	-0.6505536493120918	-0.31033848292883115	1.9568810634723435	-0.620245390353661	-0.28960604641752574	1.997684135555738	-0.6623618164156434	-0.2914037990591329	2.034233064083832	-0.8182172472352908	-0.27783862734782067	1.9655900654961935	-0.8390091012654477	-0.2726643456939967	1.9781701294169516	-0.754103808915546
88	2.933333333333333	-1.274689495534367	1.7905843464658318	0.22295214629830348	-0.3196167358715248	1.890926508508597	-0.6624460129747883																-1.1936445735514778	1.787542341337577	0.08335542101632845	-0.226329040830505	1.7286890647387418	-0.6184976157330442													-0.3090245721354289	2.031218109104262	-0.7320214866463276	-0.2963382886224265	2.086922079119326	-0.7218506292714907	-0.3233640545724541	2.0277625274751236	-0.6502181346461079	-0.31147571708511124	1.9539904383995401	-0.6230453918850407	-0.2907774980400942	1.9875743344315198	-0.6642883298069996	-0.29140761988316105	2.0337934922038166	-0.8182632705373849	-0.27810006633025297	1.963406217703593	-0.8387746912246169	-0.2815722946493128	1.9695851549678767	-0.7437129527973046
